<?xml version="1.0" standalone="no"?>
<!DOCTYPE svg PUBLIC "-//W3C//DTD SVG 20010904//EN"
 "http://www.w3.org/TR/2001/REC-SVG-20010904/DTD/svg10.dtd">
<svg version="1.0" xmlns="http://www.w3.org/2000/svg"
 width="300.000000pt" height="103.000000pt" viewBox="0 0 300.000000 103.000000"
 preserveAspectRatio="xMidYMid meet">
<metadata>
Created by potrace 1.10, written by Peter Selinger 2001-2011
</metadata>
<g transform="translate(0.000000,103.000000) scale(0.100000,-0.100000)"
fill="#000000" stroke="none">
<path d="M720 944 c-46 -20 -87 -60 -112 -108 -16 -32 -19 -52 -15 -97 4 -46
2 -59 -10 -63 -26 -10 -12 -102 21 -135 15 -14 40 -47 57 -73 50 -78 126 -110
208 -88 49 13 113 67 131 110 7 16 23 36 36 44 30 20 50 90 35 123 -6 13 -15
23 -19 23 -5 0 -7 22 -4 49 2 28 1 62 -2 76 -9 35 -96 122 -141 141 -44 18
-140 17 -185 -2z m151 -25 c43 -13 105 -69 76 -69 -24 0 -21 1 -97 -26 -38
-13 -89 -24 -112 -24 -24 0 -56 -7 -72 -15 -34 -18 -41 -14 -32 19 10 40 63
93 109 110 52 18 79 19 128 5z m93 -126 c18 -36 35 -100 29 -107 -3 -3 -17 4
-31 14 -29 24 -71 26 -98 5 -25 -19 -68 -19 -84 0 -18 22 -73 19 -95 -5 -25
-28 -35 -17 -23 27 l9 38 67 2 c44 1 89 10 132 26 83 32 77 32 94 0z m-186
-145 c4 -18 -23 -48 -43 -48 -15 0 -45 27 -45 41 0 5 9 18 21 30 18 18 23 19
42 6 12 -8 23 -21 25 -29z m156 29 c38 -27 -2 -95 -41 -71 -25 16 -29 55 -7
71 10 7 21 13 24 13 3 0 14 -6 24 -13z m-274 -46 c0 -29 31 -60 67 -67 26 -5
37 -1 57 19 14 15 26 35 26 47 0 29 13 24 30 -13 8 -17 27 -39 43 -47 24 -13
30 -13 55 0 15 8 34 30 42 47 10 22 22 33 38 33 34 0 29 -45 -8 -80 -16 -15
-30 -32 -30 -38 0 -5 -14 -28 -31 -51 -42 -58 -104 -86 -158 -71 -46 12 -91
53 -115 105 -10 20 -24 39 -32 42 -17 6 -44 54 -44 78 0 10 10 15 30 15 23 0
30 -5 30 -19z"/>
<path d="M1712 740 c2 -33 3 -60 1 -60 -2 0 -15 7 -29 17 -34 22 -90 8 -117
-29 -27 -36 -28 -112 -3 -150 21 -33 84 -56 111 -41 10 6 37 8 61 5 l44 -5 0
162 0 161 -36 0 -36 0 4 -60z m-25 -88 c6 -4 16 -19 22 -34 24 -63 -34 -124
-79 -83 -52 47 0 153 57 117z"/>
<path d="M1300 635 l0 -155 105 0 105 0 0 25 c0 24 -2 25 -70 25 l-70 0 0 40
0 40 65 0 c63 0 65 1 65 25 0 24 -2 25 -65 25 l-65 0 0 40 0 40 70 0 c68 0 70
1 70 25 l0 25 -105 0 -105 0 0 -155z"/>
<path d="M1820 617 c0 -107 12 -133 65 -143 25 -4 43 -1 60 10 14 9 25 12 25
6 0 -5 14 -10 30 -10 l30 0 0 115 0 115 -30 0 -30 0 0 -79 c0 -81 -12 -111
-45 -111 -33 0 -45 30 -45 111 l0 79 -30 0 -30 0 0 -93z"/>
<path d="M1344 391 c-73 -45 -70 -187 5 -225 65 -34 147 -4 166 62 6 19 3 22
-22 22 -20 0 -31 -7 -38 -22 -13 -29 -65 -36 -89 -13 -24 24 -22 107 3 129 26
24 73 17 86 -11 7 -16 18 -23 38 -23 25 0 27 3 22 23 -20 66 -110 97 -171 58z"/>
<path d="M2532 365 c4 -17 1 -25 -8 -25 -8 0 -14 -11 -14 -25 0 -14 5 -24 11
-22 7 1 12 -20 14 -56 3 -67 16 -87 56 -87 35 0 40 28 8 48 -27 17 -25 99 4
94 12 -2 17 4 17 23 0 19 -5 25 -17 23 -14 -2 -17 3 -15 25 2 24 0 27 -29 27
-28 0 -31 -3 -27 -25z"/>
<path d="M580 341 c-47 -21 -97 -49 -112 -63 -31 -28 -50 -92 -46 -151 l3 -42
398 -3 397 -2 0 66 c0 107 -14 126 -137 185 -58 28 -106 49 -108 47 -1 -2 -22
-52 -45 -113 -23 -60 -46 -114 -50 -118 -4 -4 -12 17 -18 47 -9 45 -8 60 4 86
24 47 13 60 -50 60 l-55 0 10 -32 c5 -17 12 -35 17 -40 7 -7 -10 -123 -20
-133 -2 -2 -23 52 -48 121 -25 68 -47 124 -50 123 -3 0 -43 -17 -90 -38z m83
-43 c8 -18 22 -53 33 -78 10 -25 24 -53 32 -62 29 -35 11 -41 -121 -40 -70 1
-132 4 -138 8 -7 4 -9 24 -6 53 4 37 12 52 38 74 25 22 121 72 146 77 1 0 8
-15 16 -32z m397 5 c86 -32 117 -63 125 -126 7 -57 1 -60 -144 -60 -73 0 -134
3 -138 6 -3 4 5 24 19 44 14 21 29 49 33 62 17 55 36 91 47 91 7 0 33 -8 58
-17z m-209 -161 c7 -19 5 -22 -21 -22 -33 0 -47 15 -30 34 16 20 42 13 51 -12z"/>
<path d="M1566 317 c-20 -21 -26 -36 -26 -72 0 -62 32 -95 90 -95 57 0 90 34
90 92 -1 60 -25 89 -83 95 -39 5 -49 2 -71 -20z m93 -31 c17 -20 10 -77 -11
-90 -26 -16 -52 4 -56 43 -4 36 12 61 38 61 10 0 23 -6 29 -14z"/>
<path d="M1740 244 l0 -95 27 3 c26 3 27 5 24 50 -3 57 4 84 26 92 30 12 43
-13 43 -80 0 -62 1 -64 25 -64 25 0 25 1 25 78 0 64 -4 82 -18 95 -22 20 -63
22 -81 5 -11 -10 -14 -10 -18 0 -3 6 -16 12 -29 12 -24 0 -24 -1 -24 -96z"/>
<path d="M1940 245 c0 -94 0 -95 25 -95 23 0 24 3 27 66 2 52 7 69 21 78 29
18 49 -18 46 -84 -3 -53 -2 -55 24 -58 l27 -3 0 69 c0 100 -40 144 -101 112
-13 -7 -19 -7 -19 0 0 5 -11 10 -25 10 -25 0 -25 0 -25 -95z"/>
<path d="M2155 315 c-19 -18 -25 -35 -25 -70 0 -61 32 -95 88 -95 37 0 82 28
82 50 0 13 -47 13 -55 0 -11 -18 -54 -11 -65 10 -10 19 -8 20 55 20 l65 0 0
30 c0 44 -39 80 -85 80 -25 0 -44 -8 -60 -25z m93 -35 c2 -12 -6 -16 -33 -16
-33 0 -45 13 -28 30 13 12 58 2 61 -14z"/>
<path d="M2353 316 c-23 -20 -28 -32 -28 -71 0 -39 5 -51 28 -71 35 -30 89
-32 117 -4 11 11 20 27 20 35 0 20 -46 20 -54 0 -9 -24 -45 -18 -57 9 -25 54
21 107 60 72 41 -37 70 -5 31 34 -28 28 -82 26 -117 -4z"/>
</g>
</svg>
